<svg xmlns="http://www.w3.org/2000/svg" width="32" height="32" viewBox="0 0 32 32" fill="none">
  <defs>
    <linearGradient id="fixgrid-sunset" x1="0%" y1="0%" x2="100%" y2="100%">
      <stop offset="0%" stop-color="#0284c7" />
      <stop offset="45%" stop-color="#0f3d4c" />
      <stop offset="85%" stop-color="#c2410c" />
      <stop offset="100%" stop-color="#ea580c" />
    </linearGradient>
  </defs>
  <rect width="32" height="32" rx="8" fill="url(#fixgrid-sunset)" />
  <g transform="translate(4, 4)">
    <svg width="24" height="24" viewBox="0 0 24 24" fill="none" stroke="#ffffff" stroke-width="2.4" stroke-linecap="round" stroke-linejoin="round">
      <path d="M14.7 6.3a1 1 0 0 0 0 1.4l1.6 1.6a1 1 0 0 0 1.4 0l3.77-3.77a6 6 0 0 1-7.94 7.94l-6.91 6.91a2.12 2.12 0 0 1-3-3l6.91-6.91a6 6 0 0 1 7.94-7.94l-3.76 3.76z" />
    </svg>
  </g>
</svg>
